<svg xmlns:xlink="http://www.w3.org/1999/xlink" xmlns="http://www.w3.org/2000/svg" width="500" height="500" viewBox="0 0 500 500" version="1.1"><path d="M97.633,46.068L21.708,156.518L24.008,219.308L0,314.39L105.97,411.225L144.276,472.866L267.38,438.02L360.369,470.161L411.706,464.569L483.827,398.208L500,356.324L479.24,192.82L413.226,117.289L363.489,44.788L262.757,27.134L181.651,35.746L97.633,46.068Z" style="" fill="#F0AE00"></path><path d="M50.536,360.57L47.036,297.269L137.753,240.751L129.939,382.865L221.864,329.625L275.577,391.102L271.491,439.441L267.38,438.02L144.276,472.866L105.97,411.225L50.536,360.57Z" style="" fill="#BB6B00"></path><path d="M268.692,438.474L268.622,438.153L271.105,386.78L303.275,366.975L347.746,301.577L420.833,331.696L425.613,368.099L443.818,359.057L485.309,394.372L483.827,398.208L411.706,464.569L360.369,470.161L268.692,438.474Z" style="" fill="#D58A00"></path><path d="M477.672,191.025L479.24,192.82L500,356.324L484.504,396.455L440.73,362.231L424.35,368.793L420.032,332.369L347.992,303.326L326.346,205.429L477.672,191.025Z" style="" fill="#833A00"></path><path d="M268.083,28.067L351.338,138.52L326.875,205.078L221.389,201.128L171.261,141.143L113.902,119.546L97.294,46.561L97.633,46.068L181.651,35.746L262.757,27.134L268.083,28.067Z" style="" fill="#FFF95F"></path><path d="M99.099,45.888L116.754,117.46L171.461,141.622L136.318,250.666L49.509,300.174L53.302,363.097L0,314.39L24.008,219.308L21.708,156.518L97.633,46.068L99.099,45.888Z" style="" fill="#DD9500"></path></svg>