<svg xmlns:xlink="http://www.w3.org/1999/xlink" xmlns="http://www.w3.org/2000/svg" width="512" height="512" viewBox="0 0 512 512" version="1.1"><path d="M368.38,159.834L368.38,350.776L256.498,410.446L144.621,350.776L144.621,159.834L256.498,100.164L368.38,159.834Z" style="fill-rule: nonzero;" fill="#C1A2FF"></path><g><path d="M345.996,179.261L413.496,167.254L449.382,129.57C448.234,127.179 446.589,125.043 444.316,123.523L264.316,2.527C261.797,0.844 258.898,0 255.996,0L240.996,91.004L255.996,131.258L287.246,166.004L345.996,179.261Z" style="fill-rule: nonzero;" fill="#BCAEFF"></path><path d="M166,179.261L124.75,137.254L62.614,129.57C61.657,131.566 61,133.726 61,136.004L61,375.999C61,378.281 61.657,380.441 62.614,382.437L132.25,373.499L166,332.745L186,251.003L166,179.261Z" style="fill-rule: nonzero;" fill="#B4A4FF"></path><path d="M345.996,332.745L293.496,342.253L255.996,380.745L240.996,443.249L255.996,511.999C258.898,511.999 261.797,511.163 264.316,509.479L444.316,388.48C446.589,386.964 448.234,384.827 449.382,382.437L405.996,341.003L345.996,332.745Z" style="fill-rule: nonzero;" fill="#8768FF"></path></g><path d="M255.996,131.258L255.996,0C253.098,0 250.195,0.844 247.68,2.527L67.68,123.523C65.407,125.043 63.762,127.179 62.614,129.57L166,179.261L255.996,131.258Z" style="fill-rule: nonzero;" fill="#E4DFFF"></path><path d="M345.996,332.745L449.382,382.437C450.339,380.441 450.996,378.281 450.996,375.999L450.996,136.004C450.996,133.726 450.339,131.566 449.382,129.57L345.996,179.261L345.996,332.745Z" style="fill-rule: nonzero;" fill="#9D7FFF"></path><path d="M166,332.745L62.614,382.437C63.762,384.827 65.407,386.964 67.68,388.484L247.68,509.479C250.199,511.163 253.098,511.999 255.996,511.999L255.996,380.745L166,332.745Z" style="fill-rule: nonzero;" fill="#9D81FF"></path><path d="M345.996,179.203L345.996,332.8L255.996,380.8L166,332.8L166,179.203L255.996,131.203L345.996,179.203Z" style="fill-rule: nonzero;" fill="#C8C0FF"></path></svg>