<svg xmlns:xlink="http://www.w3.org/1999/xlink" xmlns="http://www.w3.org/2000/svg" width="512" height="512" viewBox="0 0 512 512" version="1.1"><path d="M496.715,89.59L496.715,422.41C496.715,425.249 496.186,428.032 495.128,430.621C494.043,433.432 492.373,435.992 490.202,438.163L422.878,505.487C420.707,507.658 418.118,509.356 415.308,510.441C412.747,511.471 409.964,512 407.153,512L104.847,512C102.036,512 99.253,511.471 96.692,510.441C93.882,509.356 91.293,507.658 89.122,505.487L21.798,438.163C19.627,435.992 17.957,433.432 16.872,430.621C15.814,428.032 15.285,425.249 15.285,422.41L15.285,89.59C15.285,86.751 15.814,83.968 16.872,81.379C17.957,78.568 19.627,76.008 21.798,73.837L89.122,6.513C91.293,4.342 93.882,2.644 96.692,1.559C99.253,0.529 102.036,0 104.847,0L407.153,0C409.964,0 412.747,0.529 415.308,1.559C418.118,2.644 420.707,4.342 422.878,6.513L490.202,73.837C492.373,76.008 494.043,78.568 495.128,81.379C496.186,83.968 496.715,86.751 496.715,89.59Z" style="fill-rule: nonzero;" fill="#E41935"></path><path d="M415.308,510.441C412.747,511.471 409.964,512 407.153,512L104.847,512C102.036,512 99.253,511.471 96.692,510.441L156.335,421.993L355.665,421.993L415.308,510.441Z" style="fill-rule: nonzero;" fill="#FF355E"></path><g><path d="M495.128,430.621C494.043,433.432 492.373,435.992 490.202,438.163L422.878,505.487C420.707,507.658 418.118,509.356 415.308,510.441L355.665,421.993L405.594,372.063L495.128,430.621Z" style="fill-rule: nonzero;" fill="#FF7997"></path><path d="M156.335,90.007L106.406,139.937L16.872,81.379C17.957,78.568 19.627,76.008 21.798,73.837L89.122,6.513C91.293,4.342 93.882,2.644 96.692,1.559L156.335,90.007Z" style="fill-rule: nonzero;" fill="#FFB2C3"></path></g><path d="M415.308,1.559L355.665,90.007L156.335,90.007L96.692,1.559C99.253,0.529 102.036,0 104.847,0L407.153,0C409.964,0 412.747,0.529 415.308,1.559Z" style="fill-rule: nonzero;" fill="#FF7792"></path><g><path d="M106.406,139.937L106.406,372.063L16.872,430.621C15.814,428.032 15.285,425.249 15.285,422.41L15.285,89.59C15.285,86.751 15.814,83.968 16.872,81.379L106.406,139.937Z" style="fill-rule: nonzero;" fill="#FF5273"></path><path d="M496.715,89.59L496.715,422.41C496.715,425.249 496.186,428.032 495.128,430.621L405.594,372.063L405.594,139.937L495.128,81.379C496.186,83.968 496.715,86.751 496.715,89.59Z" style="fill-rule: nonzero;" fill="#FF2650"></path></g><path d="M156.344,421.998L106.406,372.06L106.406,139.94L156.344,90.002L355.656,90.002L405.594,139.94L405.594,372.06L355.656,421.998L156.344,421.998Z" style="fill-rule: nonzero;" fill="#FE95A9"></path></svg>