<svg xmlns:xlink="http://www.w3.org/1999/xlink" xmlns="http://www.w3.org/2000/svg" width="512" height="512" viewBox="0 0 512 512" version="1.1"><path d="M256.256,466.495C258.61,466.297 261.735,465.016 263.412,463.036L508.408,175.55C510.595,172.988 511.814,169.81 511.981,166.56L511.383,166.56L511.981,166.56C512.095,164.279 511.7,161.956 510.752,159.779L463.469,51.162C462.469,48.88 460.646,47.141 458.438,46.224L457.169,47.992L458.438,46.224C457.323,45.755 456.104,45.505 454.844,45.505L57.48,45.505C55.876,45.505 54.334,45.912 52.98,46.651C51.178,47.63 49.709,49.203 48.855,51.162L1.572,159.779C0.695,161.795 0.281,163.936 0.325,166.054L0,166.487L0.359,166.727C0.558,169.919 1.766,173.031 3.916,175.55L249.099,463.036C250.464,464.641 254.37,466.068 256.256,466.495Z" style="fill-rule: nonzero;" fill="#01D0FB"></path><path d="M256.256,461.338L258.391,455.847L283.34,284.199L359.383,139.403L486.47,139.403L511.47,166.487L511.383,166.56L511.981,166.56C511.814,169.81 510.595,172.988 508.408,175.55L263.412,463.036C261.735,465.016 258.61,466.297 256.256,466.495L255.693,462.599L256.256,461.338Z" style="fill-rule: nonzero;" fill="#01D0FB"></path><path d="M0,166.487L21.875,137.32L185.421,137.32L257.297,441.494L256.256,466.495C254.37,466.068 250.464,464.641 249.099,463.036L3.916,175.55C1.766,173.031 0.558,169.919 0.359,166.727L0,166.487Z" style="fill-rule: nonzero;" fill="#D0F4FF"></path><path d="M370.863,166.56L140.607,166.56L256.256,466.495L370.863,166.56Z" style="fill-rule: nonzero;" fill="#8CE5FF"></path><path d="M1.572,159.779C0.625,161.956 0.218,164.279 0.343,166.56L140.607,166.56L56.23,50.682L52.98,46.651C51.178,47.63 49.709,49.203 48.855,51.162L1.572,159.779Z" style="fill-rule: nonzero;" fill="#E3F6FF"></path><path d="M52.98,46.651L56.23,50.682L140.607,166.56L221.307,46.547L221.307,45.505L57.48,45.505C55.876,45.505 54.334,45.912 52.98,46.651Z" style="fill-rule: nonzero;" fill="#CDF3FF"></path><path d="M221.307,45.505L221.307,46.547L140.607,166.56L370.863,166.56L290.163,46.547L290.163,45.505L221.307,45.505Z" style="fill-rule: nonzero;" fill="#B4EAFF"></path><path d="M290.163,46.547L370.863,166.56L455.24,50.682L458.438,46.224C457.323,45.755 456.104,45.505 454.844,45.505L290.163,45.505L290.163,46.547Z" style="fill-rule: nonzero;" fill="#8BE5FF"></path><path d="M455.24,50.682L370.863,166.56L511.981,166.56C512.095,164.279 511.7,161.956 510.752,159.779L463.469,51.162C462.469,48.88 460.646,47.141 458.438,46.224L455.24,50.682Z" style="fill-rule: nonzero;" fill="#62DBFB"></path></svg>