<?xml version="1.0" encoding="utf-8"?>
<svg viewBox="137.4 0 386.5 402.3" xmlns="http://www.w3.org/2000/svg" xmlns:xlink="http://www.w3.org/1999/xlink">
  <defs>
    <linearGradient id="linear-gradient-11" x1="595.66" y1="162.92" x2="433.58" y2="180.25" gradientTransform="matrix(1, 0.05, -0.05, 1, -55.47, -23.88)" xlink:href="#linear-gradient"/>
    <linearGradient id="linear-gradient" y1="468.74" x2="65.24" y2="468.74" gradientUnits="userSpaceOnUse">
      <stop offset="0" stop-color="#e7ba1e"/>
      <stop offset="0.5" stop-color="#ffe864"/>
      <stop offset="1" stop-color="#f5c635"/>
    </linearGradient>
    <linearGradient id="linear-gradient-12" x1="139.22" y1="151.18" x2="367.06" y2="151.18" xlink:href="#linear-gradient"/>
    <linearGradient id="linear-gradient-13" x1="137.45" y1="255.58" x2="364.52" y2="255.58" xlink:href="#linear-gradient"/>
    <style>.cls-1{fill:url(#linear-gradient);}.cls-2{fill:url(#linear-gradient-2);}.cls-3{fill:url(#linear-gradient-3);}.cls-4{fill:url(#linear-gradient-4);}.cls-5{fill:url(#linear-gradient-5);}.cls-6{fill:url(#linear-gradient-6);}.cls-7{fill:url(#linear-gradient-7);}.cls-8{fill:url(#linear-gradient-8);}.cls-9{fill:url(#linear-gradient-9);}.cls-10{fill:url(#linear-gradient-10);}.cls-11{fill:url(#linear-gradient-11);}.cls-12{fill:url(#linear-gradient-12);}.cls-13{fill:url(#linear-gradient-13);}</style>
  </defs>
  <g id="Layer_2" data-name="Layer 2">
    <g id="Layer_1-2" data-name="Layer 1">
      <path class="cls-11" d="M403.8,173.4c-2.1,46.3,51.5,88.5,78.9,110a247.4,247.4,0,0,0,20.2,14.4,174.3,174.3,0,0,1-24.6-7.4C435.6,274,365.6,228.1,367.5,171.3c2.4-70.1,112.7-110.8,129.4-117a271.7,271.7,0,0,1,27-8.2c-4.8,3.2-11.9,8.1-20.3,14.4C446.9,103,405.5,134.1,403.8,173.4Z"/>
      <path class="cls-12" d="M312.8,103.1c-22.1-24.6-43.7-38.1-70.7-55a526.8,526.8,0,0,0-74.6-37.7C158.2,6.6,148.9,2.9,139.2,0a37.5,37.5,0,0,0,4.4,3.7c29.2,22.1,43.9,35.8,56.7,46.4,18.6,15.4,31,28.7,43.5,42.2,28.5,30.7,46.4,50.9,59,81.8a150.2,150.2,0,0,1,10.9,50.3q15.8,39,31.4,78c2.8-4.9,5.5-9.8,8.2-14.7h0a182,182,0,0,0,10.3-30.8h0a127.4,127.4,0,0,0,3.4-21.5C367.3,231.2,368.5,165.1,312.8,103.1Z"/>
      <path class="cls-13" d="M295.1,284.2c-.5-.9-.8-2.2-2.2-2.5a72.7,72.7,0,0,1-10,10.1,74.5,74.5,0,0,1-27.2,14.1c-32.8.8-56.2,1.4-59.4,1.7-.5,0-2.2.2-3.2-.8s-.8-1.7-.8-3.3c.1-39.3,0-78.6,0-117.9,0-5.1,0-5.2,4.7-3.2,29.3,12.5,53.4,32.1,74.7,55.5,8.6,9.5,16.3,19.5,24,29.8,29.3,41.6,50.8,87.2,68.8,134.6-6.9-29.4-14.2-54.2-20.4-73.3s-16.3-49.4-33.7-86.7c-15.4-33-27.9-52.7-31.7-58.6-12.8-19.7-27.1-38.1-45.5-52.9-8.2-6.5-16.8-12.4-27-15.5a52.3,52.3,0,0,0-14.1-4.4,64.5,64.5,0,0,0-6.8-.7c-15.2-.6-30.4-.8-45.7-1.4a2.4,2.4,0,0,0-1.8.6c-.6.7-.2,2-.2,3q-.2,120.4-.2,240.9c0,3.1,1,3.6,3.8,3.6h45.4c20.9-.2,41.9,1,62.8-.7,25.3-2,48.3-10.6,69.2-25.1,2.5-1.7,2.6-3,1.1-5.5C311.4,311.8,303.3,298,295.1,284.2Z"/>
    </g>
  </g>
</svg>