<svg xmlns="http://www.w3.org/2000/svg" viewBox="0 0 1447.1 333.1"><defs><style>.cls-1{fill:#f2f2f2;}.cls-2{fill:#0ec889;}.cls-3{fill:#fbfbfb;}.cls-4{fill:#fcfcfc;}.cls-5{fill:#fff;}</style></defs><g id="Layer_2" data-name="Layer 2"><g id="Layer_1-2" data-name="Layer 1"><path class="cls-1" d="M469.5,105.4H436.6V217.7H410V105.4H377.1V80.7h92.4Z"/><path class="cls-1" d="M542.2,116.1v27c-29.4-3.5-33.1,15.3-33.1,33.7v40.9H484.2V118.5h24.9v16.2C516.5,122.4,530.2,116.1,542.2,116.1Z"/><path class="cls-2" d="M559,90.7A13.2,13.2,0,1,1,572.1,104,13.1,13.1,0,0,1,559,90.7Z"/><rect class="cls-1" x="559.8" y="118.5" width="24.9" height="99.27"/><path class="cls-1" d="M713.1,168.2c0,26.1-17.6,52.1-48.6,52.1-15.2,0-25.2-6.1-31.5-14.1v49.3H608.1v-137H633v11.7c6.3-8.2,16.3-14.1,31.5-14.1C695.5,116.1,713.1,142.2,713.1,168.2Zm-25.5,0c0-15.3-9.8-28.2-26.8-28.2S634,152.9,634,168.2s9.6,28.2,26.8,28.2S687.6,183.5,687.6,168.2Z"/><path class="cls-1" d="M835.7,168.2c0,26.1-17.7,52.1-48.6,52.1-15.3,0-25.3-6.1-31.5-14.1v49.3H730.7v-137h24.9v11.7c6.2-8.2,16.2-14.1,31.5-14.1C818,116.1,835.7,142.2,835.7,168.2Zm-25.5,0c0-15.3-9.8-28.2-26.8-28.2s-26.8,12.9-26.8,28.2,9.5,28.2,26.8,28.2S810.2,183.5,810.2,168.2Z"/><path class="cls-1" d="M943.2,118.5l-54.3,137H863.5l18.2-43.6-41.1-93.4h26.8L893,184.1l23.3-65.6Z"/><path class="cls-1" d="M1133.9,80.7l-45.7,137h-11.1L1043,99.7l-34.3,118H997.8L952,80.7h11.1l39.8,119.4,34.4-119.4h11.2L1083,200.1l39.9-119.4Z"/><path class="cls-1" d="M1152.9,90.7a6.8,6.8,0,0,1,6.8-6.9,7,7,0,0,1,0,13.9A6.8,6.8,0,0,1,1152.9,90.7Zm1.5,27.8H1165v99.2h-10.6Z"/><path class="cls-1" d="M1277.4,159.2v58.5H1267V159.2c0-13.7-6.4-32.7-29.4-32.7s-32.9,19-32.9,32.7v58.5h-10.3V118.5h10.3v15.6c6.5-10.3,17.3-18,32.9-18C1266.2,116.1,1277.4,139.8,1277.4,159.2Z"/><path class="cls-2" d="M71.3,136.7c.5-1.3,1-2.9,1.6-4.6s1.3-3.4,2.1-5.1a104,104,0,0,1,4.6-9.4l1.7-2.9.7-1.1-7.4-4.7a6.4,6.4,0,0,1-.7,1.2L72,113.4a95.2,95.2,0,0,0-5,10.1c-.9,1.9-1.6,3.8-2.3,5.6s-1.2,3.6-1.7,5c-.8,3-1.4,5-1.4,5l8.4,2.2Z"/><path class="cls-2" d="M67.3,176.5c-.1-.8-.2-2-.3-3.4s-.1-3.1-.2-4.9.1-3.7.1-5.6.1-1.9.1-2.8a24.5,24.5,0,0,0,.2-2.7c.2-1.8.5-3.4.6-4.8l.3-2,.3-1.4c.1-.8.2-1.3.2-1.3l-8.5-1.7s-.1.6-.3,1.4l-.3,1.6-.3,2.1c-.2,1.6-.5,3.3-.6,5.3l-.3,2.9c0,1.1-.1,2.1-.1,3.1s-.2,4.1-.1,6.1.1,3.7.2,5.2.2,2.9.3,3.8l.2,1.4,8.6-1A11.6,11.6,0,0,0,67.3,176.5Z"/><path class="cls-2" d="M99.8,240.7l-2.5-2.4c-1.1-1-2.2-2.2-3.4-3.5a48.9,48.9,0,0,1-3.7-4.1c-1.3-1.4-2.4-3-3.5-4.4s-2-2.8-2.8-3.9l-2.6-4-7.4,4.5,2.7,4.4,3.1,4.3c1.2,1.5,2.4,3.1,3.8,4.7l4,4.5,3.7,3.8,2.7,2.5,1.1,1,5.8-6.6Z"/><path class="cls-2" d="M123.4,256.5c-1.6-.8-3.3-1.6-5-2.6a80.4,80.4,0,0,1-8.8-5.5l-2.8-2-1-.8-5.4,6.9,1.2.9,3,2.2c2.5,1.8,6,3.9,9.6,6,1.8,1,3.7,1.9,5.4,2.7l4.8,2.2,4.8,1.9,3-8.2-4.4-1.7Z"/><path class="cls-2" d="M86.4,107.2l2.1-2.8,3.1-3.7c1.2-1.4,2.5-2.7,3.8-4.1l4-3.8,3.7-3.2,3.7-3-5.2-6.9-4.1,3.2-4,3.4c-1.3,1.4-2.9,2.7-4.3,4.2s-2.9,3-4.1,4.5a52.3,52.3,0,0,0-3.4,4,30.6,30.6,0,0,0-2.3,3l-.8,1.1,7,5.1Z"/><path class="cls-2" d="M77.5,211.6,76,208.5l-.9-2.1-.5-1.1-.5-1.2c-.6-1.7-1.4-3.4-1.9-5.3l-.9-2.6a27.6,27.6,0,0,1-.8-2.7c-.2-.8-.5-1.6-.7-2.4s-.3-1.6-.5-2.3-.6-2.5-.7-3.3-.2-1.3-.2-1.3l-8.6,1.5s.1.5.2,1.4.5,2.2.8,3.7.4,1.5.6,2.4.5,1.8.7,2.7.6,1.9.8,2.8.7,2,1,3,1.4,3.8,2.1,5.6l.6,1.4a6.1,6.1,0,0,0,.5,1.2c.4.8.7,1.6,1,2.3l1.7,3.3.6,1.3,7.7-4A10.7,10.7,0,0,0,77.5,211.6Z"/><path class="cls-2" d="M265.4,178.7c-.2,1.4-.5,3-.7,4.8s-.7,3.6-1.2,5.4-.9,3.7-1.4,5.4-.5,1.7-.8,2.5-.5,1.5-.7,2.1l-1.2,3.3-.5,1.2,8.1,3.2.5-1.3a30.4,30.4,0,0,0,1.3-3.5c.2-.7.5-1.5.8-2.3s.5-1.8.8-2.7,1.1-3.9,1.6-5.9.8-4,1.2-5.9.6-3.7.8-5.2c.4-3.1.6-5.1.6-5.1l-8.7-.7Z"/><path class="cls-2" d="M261.9,137a5.1,5.1,0,0,0,.2.9c.2.8.6,2,1,3.3l1.1,4.8c.3,1.7.6,3.6,1,5.4s.5,3.8.6,5.6.3,3.4.4,4.8.1,4.7.1,4.7H275s0-2-.1-5.1c-.1-1.5-.3-3.3-.4-5.3s-.5-3.9-.7-6-.7-4-1.1-5.9-.8-3.7-1.2-5.2-.8-2.7-1-3.6a2.2,2.2,0,0,1-.3-1v-.3l-8.4,2.6Z"/><path class="cls-2" d="M239.4,86.2l-4.6-3.9c-1.6-1.3-3.2-2.6-4.8-3.7s-3-2.2-4.3-3l-3.2-2-1.2-.7-4.4,7.5,1.1.7,2.9,1.8,4,2.8c1.5,1,2.9,2.2,4.4,3.4s2.9,2.4,4.3,3.6l3.5,3.3,3.3,3.5,6.4-5.9-3.5-3.7Z"/><path class="cls-2" d="M245.4,105.4l2,2.8,2.8,4,1.4,2.3,1.5,2.4,1.4,2.5,1.2,2.4c.9,1.6,1.5,3.1,2.1,4.4s1,2.4,1.3,3.2l.5,1.2,8.1-3.2a11.1,11.1,0,0,1-.5-1.3,36.4,36.4,0,0,0-1.5-3.4c-.6-1.4-1.3-3.1-2.2-4.8s-.9-1.7-1.4-2.6-1-1.8-1.5-2.7l-1.5-2.7c-.6-.8-1.1-1.7-1.6-2.5l-3-4.3a36.9,36.9,0,0,0-2.3-3l-.8-1.1-6.9,5.4Z"/><path class="cls-2" d="M187.1,68.9l4.8,1.1,2.6.8,2.7.8c1.8.6,3.6,1.2,5.2,1.9l4.5,1.8,3.2,1.5,1.1.6,3.9-7.8-1.2-.7-3.4-1.5c-1.4-.7-3.1-1.3-4.9-2s-3.8-1.4-5.7-2.1l-3-.9-2.8-.8-5.2-1.2-3.6-.7-1.4-.2-1.4,8.6,1.3.2Z"/><path class="cls-2" d="M256.1,209.6a3.1,3.1,0,0,1-.4.9l-1.6,3a48.3,48.3,0,0,1-2.4,4.2c-.9,1.5-1.9,3.1-3,4.7s-2.1,3.1-3.3,4.5l-1.5,2-1.5,1.8-2.3,2.6-.8,1,6.3,5.9,1-1.1,2.4-2.8c.5-.6,1.1-1.2,1.6-1.9l1.8-2.2c1.2-1.5,2.3-3.2,3.5-4.9s2.3-3.4,3.3-5.1,1.9-3.2,2.6-4.6l1.7-3.3.5-.9v-.3l-7.8-3.8Z"/><path class="cls-2" d="M234.5,239.1l-.7.7c-.7.5-1.5,1.3-2.6,2.3s-2.4,1.9-3.7,3.1l-4.5,3.3c-1.6,1-3.1,2.1-4.7,3l-2.2,1.4-2,1.1a23.1,23.1,0,0,1-3,1.6l-1.2.6,3.9,7.8a5,5,0,0,1,1.3-.6l3.3-1.8,2.1-1.2,2.4-1.5,5.1-3.3,4.8-3.6c1.5-1.2,2.9-2.3,4.1-3.4l2.8-2.4.7-.8.3-.2-6-6.3Z"/><path class="cls-2" d="M113.2,82.3l2.9-1.8,4.3-2.4,2.4-1.2,2.6-1.2,2.6-1.2,2.5-1a42.7,42.7,0,0,1,4.6-1.6l1.8-.6,1.5-.4,1.2-.4-2.3-8.4-1.4.4-1.6.4-2,.7-4.9,1.8-2.8,1.1-2.8,1.2L119,69l-2.6,1.4a49.6,49.6,0,0,0-4.7,2.6l-3.2,1.9-1.1.8,4.7,7.3Z"/><path class="cls-2" d="M202.8,259.3l-3.2,1.3-4.6,1.5-5.3,1.4a81.9,81.9,0,0,1-10.3,1.9l-3.4.4h-1.3l.7,8.7h1.5l3.7-.4c3-.4,7.1-1.2,11.1-2.1l5.9-1.6,5-1.6,3.5-1.4,1.3-.5-3.3-8.1A5.2,5.2,0,0,1,202.8,259.3Z"/><path class="cls-2" d="M167,266.3h-5.8l-2.5-.2-2.8-.3-2.8-.3c-3.7-.5-7.4-1.3-10.2-1.9l-3.3-.9-1.3-.4-2.4,8.4,1.3.4,3.7.9A84.9,84.9,0,0,0,152,274l3,.4,3,.2,2.8.3h7.6v-8.7Z"/><path class="cls-2" d="M147.2,68.7l3.4-.6c1.3-.3,3-.4,4.8-.7l2.7-.2,2.8-.2,5.6-.2h4.8l4.8.4.8-8.7h-1.4l-3.8-.3h-5.2l-6.1.2-3,.2-3,.3-5.2.7-3.7.6-1.4.3,1.8,8.5Z"/><path class="cls-2" d="M166.5,0C74.6,0,0,74.6,0,166.5S74.6,333.1,166.5,333.1A166.6,166.6,0,0,0,333.1,166.5C333.1,74.6,258.5,0,166.5,0ZM286.6,171.9v-9.2a29,29,0,0,0,9.5,4.2,10,10,0,0,1,15.3-12.8h0l13.2,12.8L311.8,180a10,10,0,0,1-15.7-12.3A30,30,0,0,0,286.6,171.9Zm33.7-26.7-30,2.2a124.4,124.4,0,0,0-28.6-62.2l22-20.4A153.9,153.9,0,0,1,320.3,145.2Zm-40.6,21.3A113.4,113.4,0,0,1,166.5,279.7c-62.3,0-113.1-50.8-113.1-113.2S104.2,53.4,166.5,53.4,279.7,104.2,279.7,166.5ZM187.9,12.8a153.9,153.9,0,0,1,80.4,36.6l-20.4,22a124.8,124.8,0,0,0-62.2-28.6Zm-30,8.1,1.9.2a8.8,8.8,0,0,1-1.9-5.6,9,9,0,0,1,18,0,8.8,8.8,0,0,1-1.9,5.6l1.9-.2a9,9,0,0,1,0,18,8.8,8.8,0,0,1-8.4-5.7,33.5,33.5,0,0,0,4.9,10.9h-11a33.5,33.5,0,0,0,4.9-10.9,8.8,8.8,0,0,1-8.4,5.7,9,9,0,0,1,0-18Zm-12.7-8.1,2.2,30A124.4,124.4,0,0,0,85.2,71.4l-20.4-22A153.9,153.9,0,0,1,145.2,12.8Zm-95.8,52,22,20.4a124.4,124.4,0,0,0-28.6,62.2l-30-2.2A153.9,153.9,0,0,1,49.4,64.8ZM43.9,167.2c-7.8,5.3-12.6,11.2-15.3,17.6-2.7-6.4-7.5-12.3-15.3-17.6,7.8-5.3,12.6-11.2,15.3-17.6C31.3,156,36.1,161.9,43.9,167.2ZM12.8,187.9l30-2.2a124.8,124.8,0,0,0,28.6,62.2l-22,20.4A153.9,153.9,0,0,1,12.8,187.9ZM145.2,320.3a153.9,153.9,0,0,1-80.4-36.6l20.4-22a124.4,124.4,0,0,0,62.2,28.6Zm35.4-.7a9.8,9.8,0,0,1-13.6,1.5h-.1a9.6,9.6,0,0,1-13.5-1.1,12.5,12.5,0,0,1-.2-16.5h0l13.4-15.4.3.3,13.5,14.6A12.5,12.5,0,0,1,180.6,319.6Zm7.3.7-2.2-30a124.8,124.8,0,0,0,62.2-28.6l20.4,22A153.9,153.9,0,0,1,187.9,320.3Zm95.8-52-22-20.4a124.8,124.8,0,0,0,28.6-62.2l30,2.2A153.9,153.9,0,0,1,283.7,268.3Z"/><path class="cls-3" d="M140.7,200.3l-.3-53.9H115.5l-5.7-6.5h37.3v46.7l18.3-17.5,18.4,17.5V139.9h37.4l-7.2,6.4H190.3v53.9l-24.9-23.1Z"/><path class="cls-3" d="M235.4,125.8l-7,6.2H175.2v33.8l-5.1-5.8V125.5Z"/><path class="cls-4" d="M95,125.7l65.8-.2V160l-5.8,5.8V132H101.1Z"/><path class="cls-3" d="M161,191.9v45.6l-6-7V198.9Z"/><path class="cls-3" d="M170,192.1l5.2,6.8v31.6l-5.2,6.9Z"/><path class="cls-5" d="M1297.6,213.2a4.7,4.7,0,1,1,9.3,0c0,2.9-1.8,5-4.7,5S1297.6,216.1,1297.6,213.2Z"/><path class="cls-5" d="M1342.4,215.9a26,26,0,0,1-10.9,2.2c-11.4,0-18.8-7.8-18.8-19.3s7.9-20.2,20.3-20.2a22.2,22.2,0,0,1,9.6,2l-1.6,5.3a16.2,16.2,0,0,0-8-1.8c-8.7,0-13.4,6.4-13.4,14.3s5.7,14.2,13.2,14.2a18.6,18.6,0,0,0,8.4-1.9Z"/><path class="cls-5" d="M1384.3,198c0,14.1-9.7,20.2-18.9,20.2s-18.1-7.5-18.1-19.5,8.3-20.1,18.8-20.1S1384.3,186.5,1384.3,198Zm-30.1.4c0,8.3,4.8,14.6,11.5,14.6s11.6-6.2,11.6-14.7c0-6.4-3.3-14.6-11.4-14.6S1354.2,191.2,1354.2,198.4Z"/><path class="cls-5" d="M1393,189.7c0-3.9-.1-7.2-.3-10.3h6l.3,6.1h.3a13,13,0,0,1,11.9-6.9,11.3,11.3,0,0,1,10.7,7.5h.1a16,16,0,0,1,4.3-4.9,12.7,12.7,0,0,1,8.3-2.6c5.1,0,12.5,3.2,12.5,16.4v22.3h-6.7V195.9c0-7.3-2.7-11.7-8.3-11.7-3.9,0-6.9,2.9-8.1,6.3a10.9,10.9,0,0,0-.6,3.4v23.4h-6.7V194.6c0-6-2.6-10.4-7.9-10.4s-7.4,3.4-8.5,6.9a9.2,9.2,0,0,0-.6,3.3v22.9H1393Z"/></g></g></svg>