<svg xmlns:xlink="http://www.w3.org/1999/xlink" xmlns="http://www.w3.org/2000/svg" width="512" height="512" viewBox="0 0 512 512" version="1.1"><path d="M376.182,32.203L135.818,32.203C130.232,32.203 125.07,35.183 122.277,40.021L2.095,248.182C-0.698,253.02 -0.698,258.98 2.095,263.818L122.277,471.98C125.07,476.818 130.232,479.798 135.818,479.798L376.182,479.798C381.768,479.798 386.93,476.818 389.723,471.98L509.905,263.818C512.698,258.98 512.698,253.02 509.905,248.182L389.723,40.021C386.93,35.183 381.768,32.203 376.182,32.203Z" style="fill-rule: nonzero;" fill="#61D061"></path><path d="M512,256L409.521,256L332.76,388.953L384,477.702C386.338,476.352 388.327,474.398 389.723,471.979L509.905,263.817C511.302,261.399 512,258.699 512,256Z" style="fill-rule: nonzero;" fill="#2D9F2D"></path><path d="M332.76,388.953L179.24,388.953L128,477.702C130.338,479.052 133.025,479.797 135.818,479.797L376.182,479.797C378.975,479.797 381.662,479.052 384,477.702L332.76,388.953Z" style="fill-rule: nonzero;" fill="#37B643"></path><path d="M179.24,388.953L102.479,256L0,256C0,258.699 0.698,261.399 2.095,263.818L122.277,471.98C123.674,474.399 125.662,476.353 128,477.703L179.24,388.953Z" style="fill-rule: nonzero;" fill="#61D061"></path><path d="M179.24,123.047L128,34.297C125.662,35.647 123.673,37.601 122.277,40.02L2.095,248.183C0.698,250.601 0,253.301 0,256L102.479,256L179.24,123.047Z" style="fill-rule: nonzero;" fill="#CAFFB3"></path><path d="M179.24,123.047L332.76,123.047L384,34.297C381.662,32.947 378.975,32.202 376.182,32.202L135.818,32.202C133.025,32.202 130.338,32.947 128,34.297L179.24,123.047Z" style="fill-rule: nonzero;" fill="#86EB6A"></path><path d="M332.76,123.047L409.521,256L512,256C512,253.301 511.302,250.601 509.905,248.183L389.723,40.02C388.327,37.601 386.338,35.647 384,34.297L332.76,123.047Z" style="fill-rule: nonzero;" fill="#45B845"></path><path d="M332.761,123.047L179.239,123.047L102.479,256L179.239,388.953L332.761,388.953L409.521,256L332.761,123.047Z" style="fill-rule: nonzero;" fill="#ADFF8A"></path></svg>