<svg xmlns="http://www.w3.org/2000/svg" xmlns:xlink="http://www.w3.org/1999/xlink" viewBox="0 0 661.4 499.4"><defs><style>.cls-1{fill:url(#linear-gradient);}.cls-2{fill:url(#linear-gradient-2);}.cls-3{fill:url(#linear-gradient-3);}.cls-4{fill:url(#linear-gradient-4);}.cls-5{fill:url(#linear-gradient-5);}.cls-6{fill:url(#linear-gradient-6);}.cls-7{fill:url(#linear-gradient-7);}.cls-8{fill:url(#linear-gradient-8);}.cls-9{fill:url(#linear-gradient-9);}.cls-10{fill:url(#linear-gradient-10);}.cls-11{fill:url(#linear-gradient-11);}.cls-12{fill:url(#linear-gradient-12);}.cls-13{fill:url(#linear-gradient-13);}</style><linearGradient id="linear-gradient" y1="468.74" x2="65.24" y2="468.74" gradientUnits="userSpaceOnUse"><stop offset="0" stop-color="#e7ba1e"/><stop offset="0.5" stop-color="#ffe864"/><stop offset="1" stop-color="#f5c635"/></linearGradient><linearGradient id="linear-gradient-2" x1="71.17" y1="468.51" x2="134.51" y2="468.51" xlink:href="#linear-gradient"/><linearGradient id="linear-gradient-3" x1="136.1" y1="469.16" x2="200.1" y2="469.16" xlink:href="#linear-gradient"/><linearGradient id="linear-gradient-4" x1="205.47" y1="468.74" x2="233" y2="468.74" xlink:href="#linear-gradient"/><linearGradient id="linear-gradient-5" x1="239.14" y1="468.74" x2="304.38" y2="468.74" xlink:href="#linear-gradient"/><linearGradient id="linear-gradient-6" x1="332.16" y1="468.74" x2="394.88" y2="468.74" xlink:href="#linear-gradient"/><linearGradient id="linear-gradient-7" x1="399.51" y1="468.76" x2="464.49" y2="468.76" xlink:href="#linear-gradient"/><linearGradient id="linear-gradient-8" x1="470.76" y1="468.74" x2="536.75" y2="468.74" xlink:href="#linear-gradient"/><linearGradient id="linear-gradient-9" x1="542.89" y1="468.74" x2="589.46" y2="468.74" xlink:href="#linear-gradient"/><linearGradient id="linear-gradient-10" x1="595.05" y1="469.35" x2="661.39" y2="469.35" xlink:href="#linear-gradient"/><linearGradient id="linear-gradient-11" x1="595.66" y1="162.92" x2="433.58" y2="180.25" gradientTransform="matrix(1, 0.05, -0.05, 1, -55.47, -23.88)" xlink:href="#linear-gradient"/><linearGradient id="linear-gradient-12" x1="139.22" y1="151.18" x2="367.06" y2="151.18" xlink:href="#linear-gradient"/><linearGradient id="linear-gradient-13" x1="137.45" y1="255.58" x2="364.52" y2="255.58" xlink:href="#linear-gradient"/></defs><g id="Layer_2" data-name="Layer 2"><g id="Layer_1-2" data-name="Layer 1"><path class="cls-1" d="M2.8,498.2V496c1.9-1.1,3.3-1.9,4.1-2.5.4-4.9.6-14.1.6-27.7,0-5.8-.1-10.7-.2-14.6s-.3-6.2-.6-6.8a1,1,0,0,0-.5-.6,34,34,0,0,0-6.2-1v-3.5l14.6.2,20.7-.2c7.5,0,13.3.9,17.2,2.8a21.3,21.3,0,0,1,9.3,8.8c2.3,3.9,3.4,8.6,3.4,14.2a32.9,32.9,0,0,1-5.3,18.7,30.4,30.4,0,0,1-13.2,11.1,41.2,41.2,0,0,1-16.5,3.3l-15.9-.3Zm17-5.2a43.7,43.7,0,0,0,7.2.6c6.3,0,11-.9,14.3-2.6a19.7,19.7,0,0,0,8-8.8c2-4.1,3-9.1,3-15.1,0-7.8-2-13.7-6-17.8s-9.4-5.5-17.5-5.5l-9,.5-.3,26.1C19.5,481.5,19.6,489,19.8,493Z"/><path class="cls-2" d="M71.2,494.4c2.6-.1,4.2-.4,4.8-.8s1.1-1.3,2-3.2c1.7-3.6,3.9-8.7,6.6-15.2l14.9-36.4h6.1l19,45.1c2.5,5.7,4,8.8,4.6,9.4s2.3.9,5.3,1.1v3.8l-12.9-.3c-4.9,0-9.5.1-13.9.3v-3.8c3.4-.1,5.3-.3,5.8-.6a1.2,1.2,0,0,0,.8-1.2,27.2,27.2,0,0,0-1.8-5.3l-2.7-7.1H87.9L86.1,485c-.5,1.2-1.1,3.2-1.9,5.7a10,10,0,0,0-.2,1.6,1.3,1.3,0,0,0,.8,1.3c.5.3,2.5.5,5.9.8v3.8c-2.7-.2-6.2-.3-10.3-.3s-6.9.1-9.2.3Zm27.5-40.8-8.8,21.6c2.6.2,5.4.2,8.5.2s6.4,0,9.3-.2Z"/><path class="cls-3" d="M136.1,442.8v-3.5l14.6.3,12.9-.3v3.5a22.5,22.5,0,0,0-5.8.8,1.5,1.5,0,0,0-1,1.4q0,1.2,3.6,9.9l11.9,29,9.5-23.5c3.5-8.6,5.2-13.8,5.2-15.5a1.4,1.4,0,0,0-.9-1.4c-.6-.3-2.6-.5-6.1-.7v-3.5l10.3.3,9.8-.3v3.5c-2.8.3-4.5.6-4.9,1s-2.3,3.8-4.9,9.7l-12.9,30.9a153.5,153.5,0,0,0-5.7,14.7h-6.1l-14.9-35.7q-5.1-12.1-7.2-16.5a7,7,0,0,0-2-3.1C140.9,443.4,139.1,443.1,136.1,442.8Z"/><path class="cls-4" d="M205.5,498.2v-3.5c3.8-.2,6-.5,6.5-1s.8-1.5.9-3.3q.3-5.5.3-20.7c0-3.8,0-9.4-.1-16.8-.1-5-.2-7.8-.4-8.2a1.5,1.5,0,0,0-.8-1.1,27,27,0,0,0-6.4-.8v-3.5l13.2.3c5.3,0,10-.1,14.3-.3v3.5c-3.8.2-6,.5-6.5.9a3.5,3.5,0,0,0-.9,2.6c-.3,2.7-.4,8.2-.4,16.4,0,10.9.1,18.5.2,22.8s.3,6.9.7,7.7a2,2,0,0,0,1.1.8c.5.3,2.5.5,5.8.7v3.5h-5l-8.4-.2Z"/><path class="cls-5" d="M241.9,498.2V496c1.9-1.1,3.3-1.9,4.1-2.5.4-4.9.6-14.1.6-27.7,0-5.8,0-10.7-.2-14.6a38.3,38.3,0,0,0-.5-6.8.9.9,0,0,0-.6-.6,34,34,0,0,0-6.2-1v-3.5l14.6.2,20.7-.2c7.6,0,13.3.9,17.2,2.8a21.3,21.3,0,0,1,9.3,8.8,27.4,27.4,0,0,1,3.5,14.2,32.2,32.2,0,0,1-5.4,18.7,30.7,30.7,0,0,1-13.1,11.1,41.9,41.9,0,0,1-16.5,3.3l-16-.3Zm17-5.2a44,44,0,0,0,7.3.6c6.2,0,11-.9,14.3-2.6a20.1,20.1,0,0,0,7.9-8.8c2.1-4.1,3.1-9.1,3.1-15.1,0-7.8-2-13.7-6.1-17.8s-9.4-5.5-17.4-5.5l-9.1.5-.3,26.1C258.6,481.5,258.7,489,258.9,493Z"/><path class="cls-6" d="M332.2,498.2v-3.5a39.6,39.6,0,0,0,5.8-.7,1,1,0,0,0,.6-.5,6.9,6.9,0,0,0,.7-2.5,108,108,0,0,0,.5-12.3V462.8q0-7.5-.3-12.6c-.1-3.4-.3-5.4-.6-5.9a2,2,0,0,0-.9-.9c-.6-.3-2.6-.5-5.9-.6v-3.5l13.5.3q7.2,0,13.5-.3v3.5c-3.5.2-5.6.5-6.1.9s-.9,1.3-1,2.7-.2,8.8-.3,21.1h.6a128.8,128.8,0,0,0,12.2-11.4A180.6,180.6,0,0,0,377,442.8v-3.1l.4-.4,7.8.3,7.6-.3v3.5l-2.4.2a13.1,13.1,0,0,0-3.7.7,21.4,21.4,0,0,0-4.5,3.1c-2.8,2.3-6.3,5.5-10.6,9.6l-7.5,7,3.9,4.8c4.6,5.6,10,11.9,16.3,19.1,3.7,4,5.9,6.3,6.6,6.7a12.8,12.8,0,0,0,4,.7v3.5h-2.2l-7.5-.2-7.8.3c-2.3-2.9-6.1-7.6-11.5-14-4.1-4.8-7.9-9.2-11.6-13.1l-1-.9h-.5a.8.8,0,0,0-.8.6,14.6,14.6,0,0,0-.2,3.3l.2,12.7c.1,3.8.2,5.9.5,6.5a1.1,1.1,0,0,0,.8.8c.6.3,2.5.5,5.9.7v3.5q-6.1-.3-13.8-.3Z"/><path class="cls-7" d="M431.5,499.1c-10.3,0-18.3-2.7-23.8-8s-8.2-12.6-8.2-21.9c0-6.5,1.3-12,4-16.6a27.4,27.4,0,0,1,11.1-10.5c4.7-2.4,10.8-3.6,18.2-3.6s13,1.1,17.5,3.5a24.7,24.7,0,0,1,10.5,9.7c2.5,4.2,3.7,9.3,3.7,15.3a34.7,34.7,0,0,1-4,17,27.7,27.7,0,0,1-11.4,11.1C444.2,497.8,438.3,499.1,431.5,499.1Zm1.6-4.6a16.7,16.7,0,0,0,13.5-6.2c3.3-4.2,5-10.5,5-19s-1.9-15.8-5.8-20.5-7.9-5.8-14.3-5.8-10.8,2-14.1,6-5,10.2-5,18.5a38.8,38.8,0,0,0,2.7,15.3c1.9,4.1,4.2,7.1,7,9S428.6,494.5,433.1,494.5Z"/><path class="cls-8" d="M470.8,498.2v-3.5c3.6-.2,5.7-.4,6.2-.7a2.7,2.7,0,0,0,1-2c.3-1.6.4-5.5.4-11.7v-23c0-7.7-.2-12-.4-12.7a2.2,2.2,0,0,0-.7-.9c-.6-.4-2.8-.7-6.5-.9v-3.5l13.3.3c5.2,0,9.9-.1,14.2-.3v3.5a36.5,36.5,0,0,0-6.1.7,3,3,0,0,0-.8.8,27.1,27.1,0,0,0-.6,4.9c-.1,4-.2,8.1-.2,12.2v3.5c2.9.2,7.6.2,13.9.2s9.8,0,12.4-.2c0-9.1-.1-15.1-.3-18.1s-.4-2.6-.9-3-2.8-.8-6.5-1v-3.5l14.2.3,13.4-.3v3.5c-3.6.2-5.7.5-6.3.8a2.7,2.7,0,0,0-.8.7,40,40,0,0,0-.5,6.9c-.2,6.1-.3,11-.3,14.8l.2,19.1a52.7,52.7,0,0,0,.4,7.4,2.2,2.2,0,0,0,1,1.4c.4.3,2.5.5,6.3.8v3.5h-4.7l-8.2-.2-14.7.3v-3.5c3.7-.2,5.8-.5,6.4-.9s.8-1.6.9-3.5.3-10,.4-20.4H506.5l-15.9.2v2.8q0,11,.3,16.5c.2,2.5.5,3.9,1,4.3s2.7.7,6.4,1v3.5h-4.9l-8.5-.2Z"/><path class="cls-9" d="M545.4,498.2V496a22.3,22.3,0,0,0,4-2.4q.9-6.6.9-27.6c0-9.5-.1-15.9-.3-19-.1-1.6-.4-2.7-.9-3.1s-2.5-.8-6.2-1.1v-3.5l15.7.3,23.1-.3q3.6,0,6.6.3l.3.4a96.2,96.2,0,0,0-1.4,12.3h-3.3c-.1-4.1-.3-6.2-.5-6.5s-.8-.6-1.9-.8a54.5,54.5,0,0,0-10.7-.8l-8.2.3q-.6,13-.6,20.7l8.4.3c3.9,0,6.3-.1,7-.4a1.9,1.9,0,0,0,1.1-1.2c.1-.5.3-2.3.5-5.3h3.7q-.3,7-.3,9.3l.3,9.4H579c-.2-3.7-.4-5.8-.7-6.3a1.8,1.8,0,0,0-1.2-.8,60.8,60.8,0,0,0-9.4-.4l-5.4.3c-.1,1.4-.1,3-.1,4.5,0,8,.1,14.1.4,18.4h8.3a105.7,105.7,0,0,0,13.1-.7c.7-2.6,1.3-5.6,2-8.8h3.5a119.9,119.9,0,0,0-1.2,14.3l-7.3.3h-9.1l-11.7-.2Z"/><path class="cls-10" d="M595.1,498.2v-3.5c3.4-.1,5.4-.4,6-.7a1.5,1.5,0,0,0,.8-1.1c.4-.6.5-3,.6-7.1.2-6.7.2-11.8.2-15.2V452.8c0-4.7-.2-7.4-.5-8.1s-.4-.8-.8-.9-2.7-.7-6.3-1v-3.5l9.7.2,7.9-.2c6.5,8.2,13.8,17.2,22,26.8,5.4,6.5,10.1,11.8,14,16V465.5c0-6.4,0-11.8-.2-16.4a17.2,17.2,0,0,0-.6-5,1.5,1.5,0,0,0-1-.7,31.8,31.8,0,0,0-5.9-.6v-3.5l9.1.2,11.3-.2v3.5a25.5,25.5,0,0,0-5.7.7l-.8.5a1.9,1.9,0,0,0-.5,1,43.9,43.9,0,0,0-.4,6.5v33.7c0,4.6.1,9.1.3,13.7l-.6.5-7.2-1.2q-10.8-12-26.1-30c-5.2-6.2-9.3-11.3-12.5-15.5v16.4c0,4.4.1,9.8.2,16.1.1,4.6.3,7.2.6,7.9a1.6,1.6,0,0,0,.6.8c.6.3,2.6.5,6.1.8v3.5l-9.7-.3Z"/><path class="cls-11" d="M403.8,173.4c-2.1,46.3,51.5,88.5,78.9,110a247.4,247.4,0,0,0,20.2,14.4,174.3,174.3,0,0,1-24.6-7.4C435.6,274,365.6,228.1,367.5,171.3c2.4-70.1,112.7-110.8,129.4-117a271.7,271.7,0,0,1,27-8.2c-4.8,3.2-11.9,8.1-20.3,14.4C446.9,103,405.5,134.1,403.8,173.4Z"/><path class="cls-12" d="M312.8,103.1c-22.1-24.6-43.7-38.1-70.7-55a526.8,526.8,0,0,0-74.6-37.7C158.2,6.6,148.9,2.9,139.2,0a37.5,37.5,0,0,0,4.4,3.7c29.2,22.1,43.9,35.8,56.7,46.4,18.6,15.4,31,28.7,43.5,42.2,28.5,30.7,46.4,50.9,59,81.8a150.2,150.2,0,0,1,10.9,50.3q15.8,39,31.4,78c2.8-4.9,5.5-9.8,8.2-14.7h0a182,182,0,0,0,10.3-30.8h0a127.4,127.4,0,0,0,3.4-21.5C367.3,231.2,368.5,165.1,312.8,103.1Z"/><path class="cls-13" d="M295.1,284.2c-.5-.9-.8-2.2-2.2-2.5a72.7,72.7,0,0,1-10,10.1,74.5,74.5,0,0,1-27.2,14.1c-32.8.8-56.2,1.4-59.4,1.7-.5,0-2.2.2-3.2-.8s-.8-1.7-.8-3.3c.1-39.3,0-78.6,0-117.9,0-5.1,0-5.2,4.7-3.2,29.3,12.5,53.4,32.1,74.7,55.5,8.6,9.5,16.3,19.5,24,29.8,29.3,41.6,50.8,87.2,68.8,134.6-6.9-29.4-14.2-54.2-20.4-73.3s-16.3-49.4-33.7-86.7c-15.4-33-27.9-52.7-31.7-58.6-12.8-19.7-27.1-38.1-45.5-52.9-8.2-6.5-16.8-12.4-27-15.5a52.3,52.3,0,0,0-14.1-4.4,64.5,64.5,0,0,0-6.8-.7c-15.2-.6-30.4-.8-45.7-1.4a2.4,2.4,0,0,0-1.8.6c-.6.7-.2,2-.2,3q-.2,120.4-.2,240.9c0,3.1,1,3.6,3.8,3.6h45.4c20.9-.2,41.9,1,62.8-.7,25.3-2,48.3-10.6,69.2-25.1,2.5-1.7,2.6-3,1.1-5.5C311.4,311.8,303.3,298,295.1,284.2Z"/></g></g></svg>